<?xml version="1.0" encoding="UTF-8"?>
<svg width="40pt" height="40pt" version="1.1" viewBox="0 0 1200 1200" xmlns="http://www.w3.org/2000/svg">
 <path d="m1115.6 334.88h-787.5c-7.3711-0.027344-14.453 2.8711-19.688 8.0625l-243.75 236.81c-5.3984 5.3555-8.4375 12.645-8.4375 20.25s3.0391 14.895 8.4375 20.25l243.75 236.81c5.2344 5.1914 12.316 8.0898 19.688 8.0625h787.5c7.4609 0.011719 14.621-2.9492 19.898-8.2266 5.2773-5.2773 8.2383-12.438 8.2266-19.898v-474c0.011719-7.4609-2.9492-14.621-8.2266-19.898-5.2773-5.2773-12.438-8.2383-19.898-8.2266zm-262.69 341.62c5.3164 5.2656 8.3164 12.434 8.3438 19.914 0.027344 7.4844-2.9258 14.672-8.2031 19.977-5.2812 5.3008-12.453 8.2891-19.938 8.2969-7.4805 0.007812-14.66-2.957-19.953-8.25l-76.5-76.5-76.688 76.5c-5.2773 5.2617-12.422 8.2266-19.875 8.25-7.4805-0.015625-14.645-3.0039-19.926-8.3008-5.2773-5.2969-8.2383-12.473-8.2305-19.953 0.011719-7.4805 2.9883-14.648 8.2812-19.934l76.5-76.5-76.5-76.5c-7.1328-7.1016-9.9375-17.469-7.3555-27.195 2.582-9.7305 10.156-17.344 19.875-19.969 9.7148-2.6289 20.098 0.125 27.23 7.2266l76.688 76.688 76.5-76.688c7.1328-7.1016 17.516-9.8555 27.23-7.2266 9.7188 2.625 17.293 10.238 19.875 19.969 2.582 9.7266-0.22266 20.094-7.3555 27.195l-76.5 76.5z"/>
</svg>
