<?xml version="1.0" encoding="UTF-8"?>
<svg width="40pt" height="40pt" version="1.1" viewBox="0 0 1200 1200" xmlns="http://www.w3.org/2000/svg">
 <path d="m620.12 84.367c4.5703 0.93359 9.3477 3.7109 14.367 8.9648 9.2305 9.6602 16.621 21.164 23.523 32.562 22.129 36.602 39.492 76.199 55.848 115.63 22.219 53.578 41.887 108.24 60.023 163.32 20.375 61.859 38.766 124.39 55.078 187.44 16.059 62.082 30.172 124.75 41.02 187.97 9.3359 54.469 16.625 109.62 17.855 164.95 0.3125 14.25 0.19531 28.527-0.59375 42.773 0.51953-9.4531-20.645-36.168-25.527-45.207-12.48-23.137-24.844-46.352-38.527-68.82-22.77-37.418-52.617-86.469-96.027-103.98-57.008-22.988-265.96 190.35-321.49 255.65-27.207 31.984-54.039 64.309-81.676 95.938 2.4805-94.379 10.391-188.59 23.227-282.13 11.742-85.457 27.578-170.37 47.613-254.29 17.289-72.426 37.652-144.16 61.934-214.55 19.09-55.391 40.461-110.22 66.18-162.91 16.863-34.535 35.309-69.934 60.379-99.352 10.996-12.867 22.961-26.789 36.793-23.969zm-6.9062 162.89-12.379 260.16h-39.367l32.062 23.742-12.582 37.945 32.668-23.539 31.859 23.539-12.176-37.539 32.062-24.148h-39.773z" fill-rule="evenodd"/>
</svg>
