<?xml version="1.0" encoding="UTF-8"?>
<svg width="1em" height="auto" version="1.1" viewBox="0 0 1200 1200" xmlns="http://www.w3.org/2000/svg">
 <path d="m667.56 744c-86.16 46.559-174.96 88.801-267.96 119.16 54.602 38.039 121.08 58.441 187.2 56.52 82.68-0.71875 163.8-35.398 221.04-94.199 57.238-58.441 89.52-139.56 88.441-220.68 0-3.1211 0-6.1211-0.35938-9.2383-71.996 56.996-149.64 104.64-228.36 148.44z"/>
 <path d="m360.36 831.72c5.0391 5.0391 10.32 9.6016 15.719 13.801 94.922-34.559 185.28-82.68 271.8-134.88 84.602-51.48 167.16-108.84 239.52-174.48-13.801-56.16-43.078-108-84.238-147.6-57.719-55.68-136.08-88.441-216.48-89.16-79.922-1.9219-161.04 28.078-222.24 83.039-30.359 28.078-55.68 61.922-73.078 99.961-16.922 38.398-26.52 80.398-27.238 122.64 0 42.238 8.3984 84.238 24.602 123.36 16.672 38.762 41.273 74.043 71.633 103.32z"/>
 <path d="m272.76 877.44c-33.48 7.3203-67.68 13.078-100.32 7.6797-15.359-2.6406-31.559-9.2383-37.32-23.039-6.9609-13.441-3.8398-30.719 1.9219-46.078 12.359-31.559 33.84-59.641 56.16-85.68 22.32-25.801 46.559-49.922 71.879-72.602-26.52 21.48-51.84 44.641-75.359 69.602-23.879 25.32-46.922 52.32-61.559 85.32-6.4805 16.199-12.359 35.762-4.1992 54.602 7.6797 19.559 28.441 28.078 45.719 32.281 36.121 7.3203 71.879 2.6406 106.44-3.1211 38.039-7.6797 75.359-17.281 111.84-29.16-7.3203-5.3984-14.281-11.16-21.121-18.121-31.082 11.035-62.164 20.637-94.082 28.316z"/>
 <path d="m999.96 282.72c-42.719-6.1211-79.559-0.35938-115.68 6.1211-36.121 6.9609-71.16 16.559-105.36 27.719l1.1992 3.1211c18.121 12.359 34.559 26.52 49.922 41.879 4.5586 4.5586 8.8789 9.6016 13.078 14.281 18.48-6.4805 37.32-11.879 56.16-16.559 31.559-7.3203 64.559-12.719 91.078-9.9609 13.078 1.1992 22.68 5.7617 23.879 8.0391 2.2812 0.35938 3.4805 8.8789 0 21.121-8.0391 24.961-27.719 53.039-48.48 77.641-16.199 18.48-33 36.48-51.121 53.762 5.7617 20.398 9.6016 41.16 11.16 61.922 28.801-24.238 56.879-49.922 83.398-77.641 24.238-27.238 48.48-55.32 64.199-96.121 3.4805-10.801 6.9609-21.961 6.4805-35.762 0.35938-13.441-3.8398-30-13.078-42.719-19.559-27.242-46.438-33.004-66.836-36.844z"/>
</svg>
