<?xml version="1.0" encoding="UTF-8"?>
<svg width="40pt" height="40pt" version="1.1" viewBox="0 0 1200 1200" xmlns="http://www.w3.org/2000/svg">
 <path d="m244.84 137.48c43.992-33.84 92.918-61.523 145.51-81.793 65.195-25.129 135.9-38.918 209.67-38.918 161.07 0 306.87 65.27 412.42 170.82 105.52 105.55 170.82 251.36 170.82 412.42s-65.27 306.87-170.82 412.42c-105.55 105.52-251.36 170.82-412.42 170.82-161.07 0-306.87-65.27-412.42-170.82-105.52-105.55-170.82-251.36-170.82-412.42 0-49.68 6.2266-97.957 17.93-144.07 12.023-47.34 29.988-92.559 52.992-134.79 6.0469-11.09 19.906-15.156 30.996-9.1445 11.09 6.0469 15.156 19.906 9.1445 30.996-21.059 38.594-37.547 80.246-48.707 124.2-10.801 42.445-16.523 86.941-16.523 132.8 0 148.39 60.156 282.75 157.39 379.98 97.238 97.238 231.59 157.39 379.98 157.39s282.75-60.156 379.98-157.39c97.238-97.238 157.39-231.59 157.39-379.98s-60.156-282.75-157.39-379.98c-97.238-97.238-231.59-157.39-379.98-157.39-68.258 0-133.38 12.637-193.18 35.676-46.188 17.785-89.281 41.797-128.27 70.922 7.7383 12.852 12.203 27.898 12.203 43.992 0 47.16-38.23 85.395-85.43 85.395-47.16 0-85.395-38.23-85.395-85.395 0-47.195 38.23-85.43 85.395-85.43 14.258 0 27.719 3.4922 39.527 9.6836zm612.58 625.97c47.195 0 85.43 38.27 85.43 85.43 0 47.16-38.23 85.43-85.43 85.43-15.84 0-30.707-4.3203-43.418-11.879-22.824 15.191-47.34 28.008-73.188 38.125-43.703 17.062-91.188 26.461-140.8 26.461-106.89 0-203.62-43.344-273.68-113.36-70.02-70.059-113.36-166.79-113.36-273.68s43.344-203.62 113.36-273.68c70.059-70.02 166.79-113.36 273.68-113.36s203.62 43.344 273.68 113.36c70.02 70.059 113.36 166.79 113.36 273.68 0 22.211-1.9062 44.137-5.5781 65.594-3.707 21.781-9.2891 42.984-16.523 63.434-4.2109 11.918-17.281 18.18-29.195 13.969-11.918-4.2109-18.18-17.281-13.969-29.195 6.3359-17.965 11.23-36.684 14.543-55.945 3.2031-18.684 4.8594-38.016 4.8594-57.852 0-94.215-38.195-179.54-99.938-241.27-61.742-61.742-147.03-99.938-241.27-99.938-94.215 0-179.54 38.195-241.27 99.938-61.742 61.742-99.938 147.03-99.938 241.27 0 94.215 38.195 179.54 99.938 241.27 61.742 61.742 147.03 99.938 241.27 99.938 43.883 0 85.754-8.2422 124.13-23.258 20.27-7.9219 39.562-17.711 57.746-29.195-6.3008-11.879-9.8633-25.453-9.8633-39.852 0-47.16 38.23-85.43 85.395-85.43z"/>
 <path transform="scale(.65) translate(320,320)" d="m1152 600c0 5.4375-3.6562 10.172-8.8594 11.578l-346.36 93.281 102.38 177.84c2.7188 4.6875 1.9219 10.641-1.9219 14.484-2.2969 2.2969-5.3906 3.5156-8.4844 3.5156-2.0625 0-4.125-0.51562-6-1.5938l-177.84-102.38-93.328 346.4c-1.4062 5.2031-6.1406 8.8594-11.578 8.8594s-10.172-3.6562-11.578-8.8594l-93.281-346.36-177.84 102.38c-1.875 1.0781-3.9375 1.5938-6 1.5938-3.0938 0-6.1875-1.2188-8.4844-3.5156-3.8438-3.8438-4.6406-9.75-1.9219-14.484l102.38-177.84-346.4-93.328c-5.2031-1.4062-8.8594-6.1406-8.8594-11.578s3.6562-10.172 8.8594-11.578l346.36-93.281-102.38-177.84c-2.7188-4.6875-1.9219-10.641 1.9219-14.484s9.75-4.5938 14.484-1.9219l177.84 102.38 93.328-346.4c1.4062-5.2031 6.1406-8.8594 11.578-8.8594s10.172 3.6562 11.578 8.8594l93.281 346.36 177.84-102.38c4.7344-2.6719 10.641-1.9219 14.484 1.9219s4.6406 9.75 1.9219 14.484l-102.38 177.84 346.36 93.281c5.25 1.4531 8.9062 6.1875 8.9062 11.625z"/>
</svg>
