<?xml version="1.0" encoding="UTF-8"?>
<svg width="1em" height="auto" version="1.1" viewBox="0 0 1200 1200" xmlns="http://www.w3.org/2000/svg">
 <path d="m886.32 348.24c-117.19 0-215.71 79.273-245.03 186.98l-72.324 7.7656c-10.57 0.74219-21.602 1.8711-32.531 3.4922l-19.668 2.1133-87.457-89.797s149.98 0.097656 150.28 0.097656c17.844 0 32.305-14.438 32.305-32.242 0-17.316-13.715-31.332-30.875-32.102-0.75781-0.10938-495.72 11.641-495.72 11.641v0.13281c-14.004 0.71875-25.164 12.098-25.164 26.172 0 14.062 11.16 25.453 25.164 26.172v0.13281h234.93l135.11 96.383s-112 12.277-112.32 12.527c-15.48 4.1875-26.93 18.168-26.93 34.945 0 16.98 11.711 31.117 27.469 35.113 0.023437 0.023438 0.16797 0.15625 0.16797 0.15625l109.6 11.762-135.2 96.473h-232.81v0.13281c-14.004 0.70703-25.164 12.098-25.164 26.172 0 14.074 11.16 25.453 25.164 26.172v0.13281s494.27 11.867 494.66 11.844c17.664-0.20312 31.934-14.52 31.934-32.207 0-17.809-14.461-32.242-32.305-32.242-0.16797 0-0.32422 0.046876-0.49219 0.046876-0.10938 0-151.26-0.046876-151.26-0.046876l87.457-89.797 126.42 13.57c29.844 106.91 127.97 185.41 244.6 185.41 140.29 0 254.03-113.52 254.03-253.55-0.003906-140.03-113.74-253.56-254.03-253.56z"/>
</svg>
